<?xml version="1.0" standalone="no"?>
<!DOCTYPE svg PUBLIC "-//W3C//DTD SVG 20010904//EN"
 "http://www.w3.org/TR/2001/REC-SVG-20010904/DTD/svg10.dtd">

<svg version="1.0" xmlns="http://www.w3.org/2000/svg" width="84" height="84" viewBox="0 0 84 84">
  <g id="SvgjsG2114" featurekey="symbolContainer" fill="#cbd5e0">
    <rect width="84" height="84" rx="8"></rect>
  </g>
  <g id="SvgjsG2115" featurekey="monogramFeature-0" transform="matrix(1.232285976409912,0,0,1.232285976409912,20.739368499531214,-4.9366026911597025)" fill="#ffffff">
    <path
      d="M-0.24 16.560000000000002 l0 0 c0.12 -0.06 30.78 -0.48 30.9 -0.36 c0.72 0.6 1.02 5.94 1.2 12.6 c-0.84 -0.42 -1.74 -0.84 -2.7 -1.2 c-2.22 -0.84 -4.86 -1.44 -7.8 -1.56 c-1.08 0 -2.04 0.72 -2.22 1.86 c0 0 -2.1 19.14 5.46 31.86 c-5.04 0.24 -12.06 0.3 -17.34 0.18 c-4.26 -13.08 3.54 -31.02 3.54 -31.08 c0.48 -1.02 0 -2.16 -1.02 -2.58 c-0.3 -0.18 -0.6 -0.24 -0.96 -0.24 c-2.76 0.12 -5.16 0.66 -7.32 1.38 c-0.78 0.24 -1.44 0.54 -2.1 0.9 c0.12 -6.66 0.36 -11.76 0.36 -11.76 z"
      >
    </path>
  </g>
</svg>